<mxfile host="app.diagrams.net" modified="2023-12-27T02:37:18.964Z" agent="Mozilla/5.0 (Macintosh; Intel Mac OS X 10_15_7) AppleWebKit/537.36 (KHTML, like Gecko) Chrome/120.0.0.0 Safari/537.36" etag="PjcFSURKnu8HU8Ack-EW" version="22.1.12" type="github">
  <diagram name="第 1 页" id="EzYY5DIpX5SOSRkXdPXQ">
    <mxGraphModel dx="1194" dy="756" grid="1" gridSize="10" guides="1" tooltips="1" connect="1" arrows="1" fold="1" page="1" pageScale="1" pageWidth="827" pageHeight="1169" math="0" shadow="0">
      <root>
        <mxCell id="0" />
        <mxCell id="1" parent="0" />
        <mxCell id="34cul2WS6DGkj6P9bzKS-3" value="" style="rounded=0;whiteSpace=wrap;html=1;fillColor=#f5f5f5;fontColor=#333333;strokeColor=#666666;fontFamily=Times New Roman;" parent="1" vertex="1">
          <mxGeometry x="150" y="320" width="1060" height="670" as="geometry" />
        </mxCell>
        <mxCell id="34cul2WS6DGkj6P9bzKS-5" value="" style="rounded=0;whiteSpace=wrap;html=1;fontFamily=Times New Roman;" parent="1" vertex="1">
          <mxGeometry x="430" y="390" width="500" height="540" as="geometry" />
        </mxCell>
        <mxCell id="34cul2WS6DGkj6P9bzKS-50" style="edgeStyle=orthogonalEdgeStyle;rounded=0;orthogonalLoop=1;jettySize=auto;html=1;entryX=-0.004;entryY=0.561;entryDx=0;entryDy=0;dashed=1;entryPerimeter=0;" parent="1" target="34cul2WS6DGkj6P9bzKS-47" edge="1">
          <mxGeometry relative="1" as="geometry">
            <mxPoint x="630" y="560" as="sourcePoint" />
          </mxGeometry>
        </mxCell>
        <mxCell id="34cul2WS6DGkj6P9bzKS-44" value="" style="rounded=0;whiteSpace=wrap;html=1;dashed=1;" parent="1" vertex="1">
          <mxGeometry x="440" y="460" width="200" height="180" as="geometry" />
        </mxCell>
        <mxCell id="34cul2WS6DGkj6P9bzKS-47" value="" style="rounded=0;whiteSpace=wrap;html=1;dashed=1;" parent="1" vertex="1">
          <mxGeometry x="670" y="460" width="240" height="180" as="geometry" />
        </mxCell>
        <mxCell id="34cul2WS6DGkj6P9bzKS-4" value="" style="rounded=0;whiteSpace=wrap;html=1;fontFamily=Times New Roman;" parent="1" vertex="1">
          <mxGeometry x="160" y="390" width="250" height="540" as="geometry" />
        </mxCell>
        <mxCell id="34cul2WS6DGkj6P9bzKS-32" value="" style="rounded=0;whiteSpace=wrap;html=1;dashed=1;" parent="1" vertex="1">
          <mxGeometry x="180" y="660" width="210" height="250" as="geometry" />
        </mxCell>
        <mxCell id="34cul2WS6DGkj6P9bzKS-6" value="" style="rounded=0;whiteSpace=wrap;html=1;fontFamily=Times New Roman;" parent="1" vertex="1">
          <mxGeometry x="950" y="390" width="250" height="540" as="geometry" />
        </mxCell>
        <mxCell id="34cul2WS6DGkj6P9bzKS-8" value="Region within a CSP" style="text;strokeColor=none;align=center;fillColor=none;html=1;verticalAlign=middle;whiteSpace=wrap;rounded=0;fontSize=25;fontFamily=Times New Roman;" parent="1" vertex="1">
          <mxGeometry x="180" y="340" width="250" height="30" as="geometry" />
        </mxCell>
        <mxCell id="34cul2WS6DGkj6P9bzKS-9" value="RGs（1 to n）&lt;br&gt;CNAs" style="text;strokeColor=none;align=center;fillColor=none;html=1;verticalAlign=middle;whiteSpace=wrap;rounded=0;fontSize=20;fontFamily=Times New Roman;" parent="1" vertex="1">
          <mxGeometry x="195" y="400" width="180" height="50" as="geometry" />
        </mxCell>
        <mxCell id="34cul2WS6DGkj6P9bzKS-29" style="edgeStyle=orthogonalEdgeStyle;rounded=0;orthogonalLoop=1;jettySize=auto;html=1;exitX=0.75;exitY=1;exitDx=0;exitDy=0;entryX=0.75;entryY=0;entryDx=0;entryDy=0;" parent="1" source="34cul2WS6DGkj6P9bzKS-10" target="34cul2WS6DGkj6P9bzKS-11" edge="1">
          <mxGeometry relative="1" as="geometry" />
        </mxCell>
        <mxCell id="34cul2WS6DGkj6P9bzKS-31" value="Push" style="edgeLabel;html=1;align=center;verticalAlign=middle;resizable=0;points=[];fontSize=15;" parent="34cul2WS6DGkj6P9bzKS-29" vertex="1" connectable="0">
          <mxGeometry x="-0.075" y="-2" relative="1" as="geometry">
            <mxPoint as="offset" />
          </mxGeometry>
        </mxCell>
        <mxCell id="34cul2WS6DGkj6P9bzKS-10" value="&lt;font style=&quot;font-size: 15px;&quot;&gt;CNA Components&lt;/font&gt;" style="rounded=0;whiteSpace=wrap;html=1;fontFamily=Times New Roman;" parent="1" vertex="1">
          <mxGeometry x="190" y="490" width="180" height="60" as="geometry" />
        </mxCell>
        <mxCell id="34cul2WS6DGkj6P9bzKS-28" style="edgeStyle=orthogonalEdgeStyle;rounded=0;orthogonalLoop=1;jettySize=auto;html=1;exitX=0.25;exitY=0;exitDx=0;exitDy=0;entryX=0.25;entryY=1;entryDx=0;entryDy=0;" parent="1" source="34cul2WS6DGkj6P9bzKS-11" target="34cul2WS6DGkj6P9bzKS-10" edge="1">
          <mxGeometry relative="1" as="geometry" />
        </mxCell>
        <mxCell id="34cul2WS6DGkj6P9bzKS-30" value="Pull" style="edgeLabel;html=1;align=center;verticalAlign=middle;resizable=0;points=[];fontSize=15;" parent="34cul2WS6DGkj6P9bzKS-28" vertex="1" connectable="0">
          <mxGeometry x="0.075" y="4" relative="1" as="geometry">
            <mxPoint as="offset" />
          </mxGeometry>
        </mxCell>
        <mxCell id="34cul2WS6DGkj6P9bzKS-35" style="edgeStyle=orthogonalEdgeStyle;rounded=0;orthogonalLoop=1;jettySize=auto;html=1;exitX=0.5;exitY=1;exitDx=0;exitDy=0;entryX=0.5;entryY=0;entryDx=0;entryDy=0;" parent="1" source="34cul2WS6DGkj6P9bzKS-11" target="34cul2WS6DGkj6P9bzKS-12" edge="1">
          <mxGeometry relative="1" as="geometry" />
        </mxCell>
        <mxCell id="34cul2WS6DGkj6P9bzKS-11" value="&lt;font style=&quot;font-size: 15px;&quot;&gt;Incoming Data Collector&lt;br style=&quot;font-size: 15px;&quot;&gt;&lt;/font&gt;" style="rounded=0;whiteSpace=wrap;html=1;fontSize=15;fontFamily=Times New Roman;" parent="1" vertex="1">
          <mxGeometry x="190" y="720" width="180" height="60" as="geometry" />
        </mxCell>
        <mxCell id="34cul2WS6DGkj6P9bzKS-37" style="edgeStyle=orthogonalEdgeStyle;rounded=0;orthogonalLoop=1;jettySize=auto;html=1;exitX=1;exitY=0.75;exitDx=0;exitDy=0;entryX=0.25;entryY=1;entryDx=0;entryDy=0;" parent="1" source="34cul2WS6DGkj6P9bzKS-12" target="34cul2WS6DGkj6P9bzKS-15" edge="1">
          <mxGeometry relative="1" as="geometry" />
        </mxCell>
        <mxCell id="34cul2WS6DGkj6P9bzKS-39" value="Push" style="edgeLabel;html=1;align=center;verticalAlign=middle;resizable=0;points=[];fontSize=15;" parent="34cul2WS6DGkj6P9bzKS-37" vertex="1" connectable="0">
          <mxGeometry x="0.5609" y="-1" relative="1" as="geometry">
            <mxPoint as="offset" />
          </mxGeometry>
        </mxCell>
        <mxCell id="34cul2WS6DGkj6P9bzKS-12" value="&lt;font style=&quot;font-size: 15px;&quot;&gt;Data Bus&lt;br&gt;(Primary and Auxiliary)&lt;br style=&quot;font-size: 15px;&quot;&gt;&lt;/font&gt;" style="rounded=0;whiteSpace=wrap;html=1;fontSize=15;fontFamily=Times New Roman;" parent="1" vertex="1">
          <mxGeometry x="190" y="830" width="180" height="60" as="geometry" />
        </mxCell>
        <mxCell id="34cul2WS6DGkj6P9bzKS-36" style="edgeStyle=orthogonalEdgeStyle;rounded=0;orthogonalLoop=1;jettySize=auto;html=1;exitX=0.25;exitY=1;exitDx=0;exitDy=0;entryX=1;entryY=0.25;entryDx=0;entryDy=0;" parent="1" source="34cul2WS6DGkj6P9bzKS-14" target="34cul2WS6DGkj6P9bzKS-12" edge="1">
          <mxGeometry relative="1" as="geometry" />
        </mxCell>
        <mxCell id="34cul2WS6DGkj6P9bzKS-38" value="Pull" style="edgeLabel;html=1;align=center;verticalAlign=middle;resizable=0;points=[];fontSize=15;" parent="34cul2WS6DGkj6P9bzKS-36" vertex="1" connectable="0">
          <mxGeometry x="-0.3355" y="3" relative="1" as="geometry">
            <mxPoint as="offset" />
          </mxGeometry>
        </mxCell>
        <mxCell id="34cul2WS6DGkj6P9bzKS-14" value="&lt;font style=&quot;font-size: 15px;&quot;&gt;Incoming &lt;br&gt;Data&lt;br&gt;Collector&lt;/font&gt;" style="rounded=0;whiteSpace=wrap;html=1;horizontal=0;fontFamily=Times New Roman;" parent="1" vertex="1">
          <mxGeometry x="450" y="490" width="80" height="135" as="geometry" />
        </mxCell>
        <mxCell id="34cul2WS6DGkj6P9bzKS-41" style="edgeStyle=orthogonalEdgeStyle;rounded=0;orthogonalLoop=1;jettySize=auto;html=1;exitX=0.75;exitY=1;exitDx=0;exitDy=0;entryX=0.161;entryY=0.017;entryDx=0;entryDy=0;entryPerimeter=0;" parent="1" source="34cul2WS6DGkj6P9bzKS-15" target="34cul2WS6DGkj6P9bzKS-21" edge="1">
          <mxGeometry relative="1" as="geometry">
            <mxPoint x="657" y="700" as="targetPoint" />
            <Array as="points">
              <mxPoint x="600" y="650" />
              <mxPoint x="657" y="650" />
            </Array>
          </mxGeometry>
        </mxCell>
        <mxCell id="34cul2WS6DGkj6P9bzKS-15" value="&lt;font style=&quot;font-size: 15px;&quot;&gt;Incoming &lt;br&gt;API&lt;/font&gt;" style="rounded=0;whiteSpace=wrap;html=1;horizontal=0;fontFamily=Times New Roman;" parent="1" vertex="1">
          <mxGeometry x="550" y="490" width="80" height="135" as="geometry" />
        </mxCell>
        <mxCell id="34cul2WS6DGkj6P9bzKS-51" style="edgeStyle=orthogonalEdgeStyle;rounded=0;orthogonalLoop=1;jettySize=auto;html=1;exitX=1;exitY=0.5;exitDx=0;exitDy=0;entryX=0;entryY=0.5;entryDx=0;entryDy=0;dashed=1;" parent="1" source="34cul2WS6DGkj6P9bzKS-16" target="34cul2WS6DGkj6P9bzKS-17" edge="1">
          <mxGeometry relative="1" as="geometry" />
        </mxCell>
        <mxCell id="34cul2WS6DGkj6P9bzKS-57" style="edgeStyle=orthogonalEdgeStyle;rounded=0;orthogonalLoop=1;jettySize=auto;html=1;exitX=0.5;exitY=1;exitDx=0;exitDy=0;entryX=0.348;entryY=0.017;entryDx=0;entryDy=0;entryPerimeter=0;startArrow=classic;startFill=1;" parent="1" source="34cul2WS6DGkj6P9bzKS-16" target="34cul2WS6DGkj6P9bzKS-21" edge="1">
          <mxGeometry relative="1" as="geometry">
            <mxPoint x="700" y="730" as="targetPoint" />
          </mxGeometry>
        </mxCell>
        <mxCell id="34cul2WS6DGkj6P9bzKS-16" value="&lt;font style=&quot;font-size: 15px;&quot;&gt;Converter&lt;/font&gt;" style="rounded=0;whiteSpace=wrap;html=1;horizontal=0;fontFamily=Times New Roman;" parent="1" vertex="1">
          <mxGeometry x="680" y="490" width="40" height="135" as="geometry" />
        </mxCell>
        <mxCell id="34cul2WS6DGkj6P9bzKS-54" style="edgeStyle=orthogonalEdgeStyle;rounded=0;orthogonalLoop=1;jettySize=auto;html=1;exitX=1;exitY=0.5;exitDx=0;exitDy=0;entryX=0;entryY=0.5;entryDx=0;entryDy=0;dashed=1;" parent="1" source="34cul2WS6DGkj6P9bzKS-17" target="34cul2WS6DGkj6P9bzKS-19" edge="1">
          <mxGeometry relative="1" as="geometry" />
        </mxCell>
        <mxCell id="34cul2WS6DGkj6P9bzKS-58" style="edgeStyle=orthogonalEdgeStyle;rounded=0;orthogonalLoop=1;jettySize=auto;html=1;exitX=0.5;exitY=1;exitDx=0;exitDy=0;startArrow=classic;startFill=1;" parent="1" source="34cul2WS6DGkj6P9bzKS-17" edge="1">
          <mxGeometry relative="1" as="geometry">
            <mxPoint x="760" y="720" as="targetPoint" />
          </mxGeometry>
        </mxCell>
        <mxCell id="34cul2WS6DGkj6P9bzKS-17" value="&lt;font style=&quot;font-size: 15px;&quot;&gt;Filter&lt;/font&gt;" style="rounded=0;whiteSpace=wrap;html=1;horizontal=0;fontFamily=Times New Roman;" parent="1" vertex="1">
          <mxGeometry x="740" y="490" width="40" height="135" as="geometry" />
        </mxCell>
        <mxCell id="34cul2WS6DGkj6P9bzKS-56" style="edgeStyle=orthogonalEdgeStyle;rounded=0;orthogonalLoop=1;jettySize=auto;html=1;exitX=1;exitY=0.5;exitDx=0;exitDy=0;entryX=0;entryY=0.5;entryDx=0;entryDy=0;dashed=1;" parent="1" source="34cul2WS6DGkj6P9bzKS-19" target="34cul2WS6DGkj6P9bzKS-20" edge="1">
          <mxGeometry relative="1" as="geometry" />
        </mxCell>
        <mxCell id="34cul2WS6DGkj6P9bzKS-19" value="&lt;font style=&quot;font-size: 15px;&quot;&gt;Aggregator&lt;/font&gt;" style="rounded=0;whiteSpace=wrap;html=1;horizontal=0;fontFamily=Times New Roman;" parent="1" vertex="1">
          <mxGeometry x="800" y="490" width="40" height="135" as="geometry" />
        </mxCell>
        <mxCell id="34cul2WS6DGkj6P9bzKS-20" value="&lt;font style=&quot;font-size: 15px;&quot;&gt;Archiver&lt;/font&gt;" style="rounded=0;whiteSpace=wrap;html=1;horizontal=0;fontFamily=Times New Roman;" parent="1" vertex="1">
          <mxGeometry x="860" y="490" width="40" height="135" as="geometry" />
        </mxCell>
        <mxCell id="34cul2WS6DGkj6P9bzKS-21" value="&lt;font style=&quot;font-size: 15px;&quot;&gt;Data Bus&lt;br&gt;(Primary and Auxiliary)&lt;br style=&quot;font-size: 15px;&quot;&gt;&lt;/font&gt;" style="rounded=0;whiteSpace=wrap;html=1;fontSize=15;fontFamily=Times New Roman;" parent="1" vertex="1">
          <mxGeometry x="620" y="720" width="230" height="60" as="geometry" />
        </mxCell>
        <mxCell id="34cul2WS6DGkj6P9bzKS-63" style="edgeStyle=orthogonalEdgeStyle;rounded=0;orthogonalLoop=1;jettySize=auto;html=1;exitX=1;exitY=0.5;exitDx=0;exitDy=0;entryX=0.5;entryY=1;entryDx=0;entryDy=0;" parent="1" source="34cul2WS6DGkj6P9bzKS-23" target="34cul2WS6DGkj6P9bzKS-25" edge="1">
          <mxGeometry relative="1" as="geometry">
            <Array as="points">
              <mxPoint x="970" y="860" />
              <mxPoint x="970" y="600" />
              <mxPoint x="1075" y="600" />
            </Array>
          </mxGeometry>
        </mxCell>
        <mxCell id="34cul2WS6DGkj6P9bzKS-23" value="&lt;font style=&quot;font-size: 15px;&quot;&gt;Mutable and Immutable Storage&lt;br style=&quot;font-size: 15px;&quot;&gt;&lt;/font&gt;" style="rounded=0;whiteSpace=wrap;html=1;fontSize=15;fontFamily=Times New Roman;" parent="1" vertex="1">
          <mxGeometry x="620" y="830" width="280" height="60" as="geometry" />
        </mxCell>
        <mxCell id="34cul2WS6DGkj6P9bzKS-24" value="&lt;font style=&quot;font-size: 15px;&quot;&gt;Mutable and Immutable Storage&lt;br style=&quot;font-size: 15px;&quot;&gt;&lt;/font&gt;" style="rounded=0;whiteSpace=wrap;html=1;fontSize=15;fontFamily=Times New Roman;" parent="1" vertex="1">
          <mxGeometry x="991.25" y="830" width="167.5" height="60" as="geometry" />
        </mxCell>
        <mxCell id="34cul2WS6DGkj6P9bzKS-65" style="edgeStyle=orthogonalEdgeStyle;rounded=0;orthogonalLoop=1;jettySize=auto;html=1;exitX=0.25;exitY=1;exitDx=0;exitDy=0;entryX=1;entryY=0.75;entryDx=0;entryDy=0;startArrow=classic;startFill=1;" parent="1" source="34cul2WS6DGkj6P9bzKS-25" target="34cul2WS6DGkj6P9bzKS-21" edge="1">
          <mxGeometry relative="1" as="geometry" />
        </mxCell>
        <mxCell id="34cul2WS6DGkj6P9bzKS-66" style="edgeStyle=orthogonalEdgeStyle;rounded=0;orthogonalLoop=1;jettySize=auto;html=1;exitX=0.75;exitY=1;exitDx=0;exitDy=0;entryX=0.75;entryY=0;entryDx=0;entryDy=0;startArrow=classic;startFill=1;" parent="1" source="34cul2WS6DGkj6P9bzKS-25" target="34cul2WS6DGkj6P9bzKS-24" edge="1">
          <mxGeometry relative="1" as="geometry" />
        </mxCell>
        <mxCell id="34cul2WS6DGkj6P9bzKS-25" value="&lt;font style=&quot;font-size: 15px;&quot;&gt;Analytics Engines&lt;br style=&quot;font-size: 15px;&quot;&gt;&lt;/font&gt;" style="rounded=0;whiteSpace=wrap;html=1;fontSize=15;fontFamily=Times New Roman;" parent="1" vertex="1">
          <mxGeometry x="991.25" y="490" width="167.5" height="60" as="geometry" />
        </mxCell>
        <mxCell id="34cul2WS6DGkj6P9bzKS-26" value="RG-OBS-CS&lt;br&gt;[Collection and Storage]" style="text;strokeColor=none;align=center;fillColor=none;html=1;verticalAlign=middle;whiteSpace=wrap;rounded=0;fontSize=20;fontFamily=Times New Roman;" parent="1" vertex="1">
          <mxGeometry x="560" y="400" width="240" height="50" as="geometry" />
        </mxCell>
        <mxCell id="34cul2WS6DGkj6P9bzKS-27" value="RG-OBS-AE（1 to m）&lt;br&gt;[Analytics Engines]" style="text;strokeColor=none;align=center;fillColor=none;html=1;verticalAlign=middle;whiteSpace=wrap;rounded=0;fontSize=20;fontFamily=Times New Roman;" parent="1" vertex="1">
          <mxGeometry x="957.5" y="400" width="235" height="50" as="geometry" />
        </mxCell>
        <mxCell id="34cul2WS6DGkj6P9bzKS-34" value="Observability &lt;br&gt;Components" style="text;strokeColor=none;align=center;fillColor=none;html=1;verticalAlign=middle;whiteSpace=wrap;rounded=0;fontSize=14;fontFamily=Times New Roman;" parent="1" vertex="1">
          <mxGeometry x="227.5" y="680" width="105" height="30" as="geometry" />
        </mxCell>
        <mxCell id="34cul2WS6DGkj6P9bzKS-40" style="edgeStyle=orthogonalEdgeStyle;rounded=0;orthogonalLoop=1;jettySize=auto;html=1;exitX=0.75;exitY=1;exitDx=0;exitDy=0;entryX=0.065;entryY=0.017;entryDx=0;entryDy=0;entryPerimeter=0;" parent="1" source="34cul2WS6DGkj6P9bzKS-14" target="34cul2WS6DGkj6P9bzKS-21" edge="1">
          <mxGeometry relative="1" as="geometry" />
        </mxCell>
        <mxCell id="34cul2WS6DGkj6P9bzKS-45" value="Data Ingestion Components" style="text;strokeColor=none;align=center;fillColor=none;html=1;verticalAlign=middle;whiteSpace=wrap;rounded=0;fontSize=14;fontFamily=Times New Roman;" parent="1" vertex="1">
          <mxGeometry x="450" y="460" width="180" height="30" as="geometry" />
        </mxCell>
        <mxCell id="34cul2WS6DGkj6P9bzKS-48" value="DM Components" style="text;strokeColor=none;align=center;fillColor=none;html=1;verticalAlign=middle;whiteSpace=wrap;rounded=0;fontSize=14;fontFamily=Times New Roman;" parent="1" vertex="1">
          <mxGeometry x="700" y="460" width="180" height="30" as="geometry" />
        </mxCell>
        <mxCell id="34cul2WS6DGkj6P9bzKS-59" style="edgeStyle=orthogonalEdgeStyle;rounded=0;orthogonalLoop=1;jettySize=auto;html=1;exitX=0.5;exitY=1;exitDx=0;exitDy=0;startArrow=classic;startFill=1;" parent="1" source="34cul2WS6DGkj6P9bzKS-19" edge="1">
          <mxGeometry relative="1" as="geometry">
            <mxPoint x="820" y="720" as="targetPoint" />
          </mxGeometry>
        </mxCell>
        <mxCell id="34cul2WS6DGkj6P9bzKS-60" style="edgeStyle=orthogonalEdgeStyle;rounded=0;orthogonalLoop=1;jettySize=auto;html=1;exitX=0.25;exitY=1;exitDx=0;exitDy=0;startArrow=classic;startFill=1;endArrow=none;endFill=0;entryX=1;entryY=0.5;entryDx=0;entryDy=0;" parent="1" source="34cul2WS6DGkj6P9bzKS-20" target="34cul2WS6DGkj6P9bzKS-21" edge="1">
          <mxGeometry relative="1" as="geometry">
            <mxPoint x="870" y="720" as="targetPoint" />
          </mxGeometry>
        </mxCell>
        <mxCell id="34cul2WS6DGkj6P9bzKS-62" style="edgeStyle=orthogonalEdgeStyle;rounded=0;orthogonalLoop=1;jettySize=auto;html=1;exitX=0.75;exitY=1;exitDx=0;exitDy=0;" parent="1" source="34cul2WS6DGkj6P9bzKS-20" edge="1">
          <mxGeometry relative="1" as="geometry">
            <mxPoint x="890" y="830" as="targetPoint" />
          </mxGeometry>
        </mxCell>
        <mxCell id="34cul2WS6DGkj6P9bzKS-68" value="Abstract data flow" style="text;strokeColor=none;align=center;fillColor=none;html=1;verticalAlign=middle;whiteSpace=wrap;rounded=0;fontSize=25;fontFamily=Times New Roman;" parent="1" vertex="1">
          <mxGeometry x="332.5" y="950" width="237.5" height="30" as="geometry" />
        </mxCell>
        <mxCell id="34cul2WS6DGkj6P9bzKS-73" style="edgeStyle=orthogonalEdgeStyle;rounded=0;orthogonalLoop=1;jettySize=auto;html=1;exitX=1;exitY=0.5;exitDx=0;exitDy=0;" parent="1" source="34cul2WS6DGkj6P9bzKS-69" edge="1">
          <mxGeometry relative="1" as="geometry">
            <mxPoint x="990" y="965" as="targetPoint" />
          </mxGeometry>
        </mxCell>
        <mxCell id="34cul2WS6DGkj6P9bzKS-69" value="Actual data flow" style="text;strokeColor=none;align=center;fillColor=none;html=1;verticalAlign=middle;whiteSpace=wrap;rounded=0;fontSize=25;fontFamily=Times New Roman;" parent="1" vertex="1">
          <mxGeometry x="753.75" y="950" width="196.25" height="30" as="geometry" />
        </mxCell>
        <mxCell id="34cul2WS6DGkj6P9bzKS-71" style="edgeStyle=orthogonalEdgeStyle;rounded=0;orthogonalLoop=1;jettySize=auto;html=1;exitX=1;exitY=0.5;exitDx=0;exitDy=0;dashed=1;" parent="1" source="34cul2WS6DGkj6P9bzKS-68" edge="1">
          <mxGeometry relative="1" as="geometry">
            <mxPoint x="613" y="965" as="targetPoint" />
          </mxGeometry>
        </mxCell>
      </root>
    </mxGraphModel>
  </diagram>
</mxfile>
